HIERARCHY
ROOT Hips
{
  OFFSET 5.72205e-005 65.662 3.42586
  CHANNELS 6 Xposition Yposition Zposition Zrotation Xrotation Yrotation
  JOINT Chest
  {
    OFFSET 0 8.7983 -4.7612
    CHANNELS 3 Zrotation Xrotation Yrotation
    JOINT Chest2
    {
      OFFSET 0 8.0291 0.4195
      CHANNELS 3 Zrotation Xrotation Yrotation
      JOINT Chest3
      {
        OFFSET 0 9.9351 -2.2114
        CHANNELS 3 Zrotation Xrotation Yrotation
        JOINT Neck
        {
          OFFSET 0 22.3885 -0.4656
          CHANNELS 3 Zrotation Xrotation Yrotation
          JOINT Head
          {
            OFFSET -0.0001 12.643 3.4389
            CHANNELS 3 Zrotation Xrotation Yrotation
            End Site
            {
              OFFSET 0.0001 17.6655 0.5274
            }
          }
        }
        JOINT LeftCollar
        {
          OFFSET 2.2603 21.606 7.4023
          CHANNELS 3 Zrotation Xrotation Yrotation
          JOINT LeftShoulder
          {
            OFFSET 13.5163 -1.1332 -5.0146
            CHANNELS 3 Zrotation Xrotation Yrotation
            JOINT LeftElbow
            {
              OFFSET -0.0995 -28.05 -0.2431
              CHANNELS 3 Zrotation Xrotation Yrotation
              JOINT LeftWrist
              {
                OFFSET 0.0679 -23.3996 -0.1402
                CHANNELS 3 Zrotation Xrotation Yrotation
                JOINT LeftFinger1
                {
                  OFFSET 0.7932 -9.069 2.5189
                  CHANNELS 3 Zrotation Xrotation Yrotation
                  JOINT LeftFinger11
                  {
                    OFFSET -0.8272 -3.3923 0.5977
                    CHANNELS 3 Zrotation Xrotation Yrotation
                    JOINT LeftFinger12
                    {
                      OFFSET -0.5649 -2.3158 0.4082
                      CHANNELS 3 Zrotation Xrotation Yrotation
                      End Site
                      {
                        OFFSET -0.4919 -1.6479 0.2673
                      }
                    }
                  }
                }
                JOINT LeftFinger2
                {
                  OFFSET 0.9159 -9.2044 0.2193
                  CHANNELS 3 Zrotation Xrotation Yrotation
                  JOINT LeftFinger21
                  {
                    OFFSET 0.0117 -4.1944 -0.0248
                    CHANNELS 3 Zrotation Xrotation Yrotation
                    JOINT LeftFinger22
                    {
                      OFFSET 0.0071 -2.3249 -0.0142
                      CHANNELS 3 Zrotation Xrotation Yrotation
                      End Site
                      {
                        OFFSET -0.1475 -2.0882 0.0028
                      }
                    }
                  }
                }
                JOINT LeftFinger3
                {
                  OFFSET 0.6113 -8.7231 -2.0637
                  CHANNELS 3 Zrotation Xrotation Yrotation
                  JOINT LeftFinger31
                  {
                    OFFSET -0.1927 -3.8059 -0.2383
                    CHANNELS 3 Zrotation Xrotation Yrotation
                    JOINT LeftFinger32
                    {
                      OFFSET -0.1091 -2.1688 -0.1362
                      CHANNELS 3 Zrotation Xrotation Yrotation
                      End Site
                      {
                        OFFSET -0.2358 -1.9176 -0.0906
                      }
                    }
                  }
                }
                JOINT LeftFinger4
                {
                  OFFSET -0.6151 -8.0947 -3.5641
                  CHANNELS 3 Zrotation Xrotation Yrotation
                  JOINT LeftFinger41
                  {
                    OFFSET -0.4882 -2.341 -0.6462
                    CHANNELS 3 Zrotation Xrotation Yrotation
                    JOINT LeftFinger42
                    {
                      OFFSET -0.3575 -1.7167 -0.4742
                      CHANNELS 3 Zrotation Xrotation Yrotation
                      End Site
                      {
                        OFFSET -0.4187 -1.5237 -0.3496
                      }
                    }
                  }
                }
                JOINT LeftFinger0
                {
                  OFFSET -1.42 -1.8761 1.4223
                  CHANNELS 3 Zrotation Xrotation Yrotation
                  JOINT LeftFinger01
                  {
                    OFFSET -1.1471 -3.4929 2.6334
                    CHANNELS 3 Zrotation Xrotation Yrotation
                    JOINT LeftFinger02
                    {
                      OFFSET -0.823 -2.3 1.6571
                      CHANNELS 3 Zrotation Xrotation Yrotation
                      End Site
                      {
                        OFFSET -0.5822 -1.6914 1.1582
                      }
                    }
                  }
                }
              }
            }
          }
        }
        JOINT RightCollar
        {
          OFFSET -2.2603 21.606 7.4023
          CHANNELS 3 Zrotation Xrotation Yrotation
          JOINT RightShoulder
          {
            OFFSET -13.5187 -1.1334 -5.0155
            CHANNELS 3 Zrotation Xrotation Yrotation
            JOINT RightElbow
            {
              OFFSET 0.0994 -28.0499 -0.2431
              CHANNELS 3 Zrotation Xrotation Yrotation
              JOINT RightWrist
              {
                OFFSET -0.0679 -23.3996 -0.1402
                CHANNELS 3 Zrotation Xrotation Yrotation
                JOINT RightFinger1
                {
                  OFFSET -0.7932 -9.0691 2.5189
                  CHANNELS 3 Zrotation Xrotation Yrotation
                  JOINT RightFinger11
                  {
                    OFFSET 0.8272 -3.3923 0.5977
                    CHANNELS 3 Zrotation Xrotation Yrotation
                    JOINT RightFinger12
                    {
                      OFFSET 0.565 -2.3158 0.4082
                      CHANNELS 3 Zrotation Xrotation Yrotation
                      End Site
                      {
                        OFFSET 0.4919 -1.6479 0.2673
                      }
                    }
                  }
                }
                JOINT RightFinger2
                {
                  OFFSET -0.916 -9.2044 0.2193
                  CHANNELS 3 Zrotation Xrotation Yrotation
                  JOINT RightFinger21
                  {
                    OFFSET -0.0117 -4.1944 -0.0248
                    CHANNELS 3 Zrotation Xrotation Yrotation
                    JOINT RightFinger22
                    {
                      OFFSET -0.0071 -2.3249 -0.0142
                      CHANNELS 3 Zrotation Xrotation Yrotation
                      End Site
                      {
                        OFFSET 0.1475 -2.0882 0.0028
                      }
                    }
                  }
                }
                JOINT RightFinger3
                {
                  OFFSET -0.6113 -8.7231 -2.0637
                  CHANNELS 3 Zrotation Xrotation Yrotation
                  JOINT RightFinger31
                  {
                    OFFSET 0.1927 -3.8059 -0.2383
                    CHANNELS 3 Zrotation Xrotation Yrotation
                    JOINT RightFinger32
                    {
                      OFFSET 0.1091 -2.1688 -0.1362
                      CHANNELS 3 Zrotation Xrotation Yrotation
                      End Site
                      {
                        OFFSET 0.2358 -1.9176 -0.0906
                      }
                    }
                  }
                }
                JOINT RightFinger4
                {
                  OFFSET 0.6151 -8.0947 -3.564
                  CHANNELS 3 Zrotation Xrotation Yrotation
                  JOINT RightFinger41
                  {
                    OFFSET 0.4882 -2.341 -0.6462
                    CHANNELS 3 Zrotation Xrotation Yrotation
                    JOINT RightFinger42
                    {
                      OFFSET 0.3574 -1.7166 -0.4742
                      CHANNELS 3 Zrotation Xrotation Yrotation
                      End Site
                      {
                        OFFSET 0.4187 -1.5237 -0.3496
                      }
                    }
                  }
                }
                JOINT RightFinger0
                {
                  OFFSET 1.4199 -1.8761 1.4221
                  CHANNELS 3 Zrotation Xrotation Yrotation
                  JOINT RightFinger01
                  {
                    OFFSET 1.1472 -3.4929 2.6336
                    CHANNELS 3 Zrotation Xrotation Yrotation
                    JOINT RightFinger02
                    {
                      OFFSET 0.8229 -2.3 1.6571
                      CHANNELS 3 Zrotation Xrotation Yrotation
                      End Site
                      {
                        OFFSET 0.5822 -1.6914 1.1582
                      }
                    }
                  }
                }
              }
            }
          }
        }
      }
    }
  }
  JOINT RightHip
  {
    OFFSET -9.412 3.9771 -0.7758
    CHANNELS 3 Zrotation Xrotation Yrotation
    JOINT RightKnee
    {
      OFFSET -0.7531 -40.938 0
      CHANNELS 3 Zrotation Xrotation Yrotation
      JOINT RightAnkle
      {
        OFFSET 0 -40.1986 0
        CHANNELS 3 Zrotation Xrotation Yrotation
        JOINT RightToe
        {
          OFFSET 0 -4.4182 9.239
          CHANNELS 3 Zrotation Xrotation Yrotation
          End Site
          {
            OFFSET 0 0 6.1981
          }
        }
      }
    }
  }
  JOINT LeftHip
  {
    OFFSET 9.4119 3.9773 -0.7758
    CHANNELS 3 Zrotation Xrotation Yrotation
    JOINT LeftKnee
    {
      OFFSET 0.7532 -40.9383 0
      CHANNELS 3 Zrotation Xrotation Yrotation
      JOINT LeftAnkle
      {
        OFFSET 0 -40.1986 0
        CHANNELS 3 Zrotation Xrotation Yrotation
        JOINT LeftToe
        {
          OFFSET 0 -4.4182 9.239
          CHANNELS 3 Zrotation Xrotation Yrotation
          End Site
          {
            OFFSET 0 0 6.1981
          }
        }
      }
    }
  }
}
MOTION
Frames:	4
Frame Time:	0.0333333
5.72205e-005 65.662 3.42586 0 0 -0 0 0 -0 0 0 -0 0 0 -0 0 0 -0 0 0 -0 0 0 -12.5014 88.1196 14.2451 10.6914 -0.00160068 -0.00239207 0.000740045 -8.4365e-005 7.00714e-005 -9.52055e-007 9.93923e-017 -1.98785e-016 -1.59028e-015 9.93923e-017 -5.96354e-016 -1.59028e-015 -9.93923e-017 -5.96354e-016 -1.59028e-015 9.93923e-017 -1.98785e-016 -1.59028e-015 -0.0128176 0.00232552 8.52707e-005 9.93923e-017 5.96354e-016 -0 9.93923e-017 -1.98785e-016 -1.59028e-015 -0.0160551 0.00299681 0.000857156 -2.48481e-016 0 3.18055e-015 9.93923e-017 -1.98785e-016 -1.59028e-015 -0.0125865 0.0031206 0.00282719 0 1.98785e-016 -0 9.93923e-017 -1.98785e-016 -1.59028e-015 9.93923e-017 -5.96354e-016 -1.59028e-015 -9.93923e-017 -5.96354e-016 -1.59028e-015 -0.865644 0.16582 7.03859 -88.0329 10.2057 -10.5567 0.0015593 -0.00248883 -0.000788628 7.87605e-005 4.10553e-005 1.24965e-005 -3.97569e-016 -7.95139e-016 3.18055e-015 -1.98785e-016 -3.97569e-016 3.18055e-015 -1.98785e-016 0 3.18055e-015 -3.97569e-016 -7.95139e-016 3.18055e-015 0.0129473 0.00231697 -8.70038e-005 9.93923e-017 -7.95139e-016 1.59028e-015 -3.97569e-016 -7.95139e-016 3.18055e-015 0.0163314 0.00303369 -0.000872333 3.97569e-016 7.95139e-016 -3.18055e-015 -3.97569e-016 -7.95139e-016 3.18055e-015 0.0145763 0.00367772 -0.00326275 9.93923e-017 -3.97569e-016 -0 -3.97569e-016 -7.95139e-016 3.18055e-015 -1.98785e-016 -3.97569e-016 3.18055e-015 -1.98785e-016 0 3.18055e-015 3.42482 1.32465 -0.0626183 0.000117508 0.717283 0.000978199 -3.4257 -2.04197 -0.0604716 6.47761e-025 0 -0 -3.42483 1.34017 0.0627307 -0.000193936 0.682302 -0.0013703 3.42574 -2.02253 0.0595886 -8.45714e-024 0 -7.40531e-025 
8.69951 2.94482 14.2516 96.6586 -0.148901 -167.902 0.452417 4.80507 -0.452529 0.948075 9.60625 -0.948296 0.948079 9.60629 -0.948305 0.176288 -10.191 -0.0151732 -2.76152e-006 2.42534 -2.52251e-006 -8.7477 -26.4071 -13.3946 14.0673 -36.1266 -6.6545 -41.9102 -5.25145 -2.2792 -44.1476 -4.72825 -11.0175 -3.57602e-006 4.98e-006 -2.01139e-006 -2.97604e-006 6.76555e-006 -9.96189e-008 1.98785e-015 1.59028e-015 -3.18055e-015 -3.57602e-006 4.98e-006 -2.01139e-006 -0.0128097 0.00233329 8.81741e-005 -1.36438e-006 -1.2525e-006 -9.53639e-006 -3.57602e-006 4.98e-006 -2.01139e-006 -0.0160566 0.00300057 0.000851718 1.19271e-015 1.39149e-015 9.54166e-015 -3.57602e-006 4.98e-006 -2.01139e-006 -0.0126064 0.00311786 0.00282339 1.59028e-015 -1.59028e-015 3.18055e-015 -3.57602e-006 4.98e-006 -2.01139e-006 -2.97604e-006 6.76555e-006 -9.96189e-008 1.98785e-015 1.59028e-015 -3.18055e-015 -12.2055 -27.4927 12.1514 -33.9961 -51.3547 -10.8734 67.1422 -64.7652 -0.389247 40.8995 -2.6175 -1.69856 5.51738e-033 -3.97569e-016 7.95139e-016 -6.30597e-006 7.37108e-006 8.78596e-006 4.41391e-032 1.59028e-015 -1.59028e-015 5.51738e-033 -3.97569e-016 7.95139e-016 0.0129481 0.00231736 -7.92116e-005 3.18055e-015 1.47101e-014 -7.95139e-016 5.51738e-033 -3.97569e-016 7.95139e-016 0.0163528 0.00304073 -0.000873036 3.18055e-015 9.14409e-015 -7.95139e-016 5.51738e-033 -3.97569e-016 7.95139e-016 0.0145838 0.00369108 -0.00325911 -2.47528e-006 1.6267e-006 -1.3208e-007 5.51738e-033 -3.97569e-016 7.95139e-016 -6.30597e-006 7.37108e-006 8.78596e-006 4.41391e-032 1.59028e-015 -1.59028e-015 -20.4969 -42.5001 -17.5147 95.2714 23.0048 -104.165 3.40937 17.7003 2.64334 -3.0445e-006 1.72488e-006 -2.16049e-007 7.24343 -6.67457 10.1265 0.247849 68.9013 -2.70527 3.12072 34.5935 1.73391 1.02803e-005 -9.05199e-006 8.43134e-006 
8.61454 7.30889 12.314 89.6582 -0.192421 178.646 0.420531 4.05955 -0.403679 0.873094 8.1159 -0.840479 0.873086 8.11592 -0.84048 1.13754 -6.44636 -0.117366 1.16843e-005 3.79046 8.74586e-006 -8.60647 -22.8166 -14.8185 19.8155 -30.9057 -3.96232 -37.298 -10.7452 -5.31354 -42.7826 -3.5725 -9.47981 -7.95139e-016 2.38542e-015 -0 -4.00435e-007 8.8307e-007 -1.42336e-007 7.95139e-016 4.77083e-015 -0 -7.95139e-016 2.38542e-015 -0 -0.0128224 0.00233623 8.77943e-005 -3.18055e-015 3.26007e-014 -3.18055e-015 -7.95139e-016 2.38542e-015 -0 -0.0160203 0.00299169 0.000864115 -1.59028e-015 7.95139e-015 6.36111e-015 -7.95139e-016 2.38542e-015 -0 -0.012576 0.00312512 0.00283179 -7.95139e-016 -7.95139e-016 -0 -7.95139e-016 2.38542e-015 -0 -4.00435e-007 8.8307e-007 -1.42336e-007 7.95139e-016 4.77083e-015 -0 -12.3369 -24.186 9.28586 -36.0092 -46.8556 -9.52016 61.8284 -60.5981 -1.34897 38.9566 -2.6418 -2.50141 7.95139e-016 2.02512e-015 9.93923e-017 0 2.03133e-015 -0 -7.95139e-016 -1.15544e-015 3.97569e-016 7.95139e-016 2.02512e-015 9.93923e-017 0.0129243 0.00232179 -9.31885e-005 1.57224e-032 -9.06334e-015 9.93923e-017 7.95139e-016 2.02512e-015 9.93923e-017 0.016279 0.00302987 -0.000872428 -1.59028e-015 5.28643e-015 2.98177e-016 7.95139e-016 2.02512e-015 9.93923e-017 0.0146187 0.00368518 -0.00327482 -7.95139e-016 -9.39879e-015 9.93923e-017 7.95139e-016 2.02512e-015 9.93923e-017 0 2.03133e-015 -0 -7.95139e-016 -1.15544e-015 3.97569e-016 -17.652 -38.9233 -15.7006 88.7946 28.456 -101.686 3.2912 16.0748 2.52241 4.39679e-007 -5.10603e-006 7.62201e-006 6.5368 -5.00134 9.27551 -0.761703 63.0621 -1.75672 3.15479 32.129 1.48722 -3.19886e-006 5.19893e-007 -7.20345e-006 
8.53652 6.97978 11.7889 89.1434 -0.277984 178.295 0.424962 3.67006 -0.395029 0.878044 7.33701 -0.819919 0.878065 7.33702 -0.819923 2.05353 -3.58739 -0.262638 1.69545e-005 5.22574 2.62196e-006 -9.01746 -21.1466 -16.1918 20.9772 -29.6146 -2.65519 -35.958 -16.3802 -8.06321 -44.3381 -2.88285 -8.5622 -4.0089e-006 -3.71683e-006 -1.43605e-006 -4.0089e-006 4.97259e-006 -1.43605e-006 -2.38542e-015 4.37326e-015 -0 -4.0089e-006 -3.71683e-006 -1.43605e-006 -0.0128225 0.00232362 0.000105928 3.18055e-015 -1.59028e-015 1.27222e-014 -4.0089e-006 -3.71683e-006 -1.43605e-006 -0.016033 0.00300099 0.000861092 -1.59028e-015 0 -3.18055e-015 -4.0089e-006 -3.71683e-006 -1.43605e-006 -0.0125873 0.00312228 0.00283655 7.95139e-016 5.56597e-015 3.18055e-015 -4.0089e-006 -3.71683e-006 -1.43605e-006 -4.0089e-006 4.97259e-006 -1.43605e-006 -2.38542e-015 4.37326e-015 -0 -12.9579 -22.8356 7.04358 -35.1551 -46.7356 -8.78846 63.5651 -60.6503 0.222736 39.7645 -2.87362 -3.51022 -2.90176e-006 7.8935e-006 6.39962e-008 4.90789e-006 3.97554e-006 -1.41787e-006 -4.18438e-007 4.62791e-006 -5.42391e-007 -2.90176e-006 7.8935e-006 6.39962e-008 0.0129394 0.00231968 -8.58662e-005 4.72654e-006 -1.90644e-006 9.40184e-006 -2.90176e-006 7.8935e-006 6.39962e-008 0.0163531 0.00304429 -0.000882855 2.45403e-006 1.92005e-006 -7.08807e-007 -2.90176e-006 7.8935e-006 6.39962e-008 0.0145893 0.00368149 -0.00326337 6.36225e-006 4.69645e-006 8.92959e-006 -2.90176e-006 7.8935e-006 6.39962e-008 4.90789e-006 3.97554e-006 -1.41787e-006 -4.18438e-007 4.62791e-006 -5.42391e-007 -17.7752 -38.4345 -15.6258 88.7909 28.456 -101.683 3.51712 16.0029 3.05508 1.65039e-006 -1.60144e-006 -9.8513e-008 6.53625 -4.27179 9.20081 -0.96221 62.3334 -1.60324 3.17224 32.1653 1.46534 1.6877e-006 2.14805e-007 -3.37866e-006 
